<?xml version="1.0" standalone="no"?>
<!DOCTYPE svg PUBLIC "-//W3C//DTD SVG 20010904//EN"
 "http://www.w3.org/TR/2001/REC-SVG-20010904/DTD/svg10.dtd">
<svg version="1.0" xmlns="http://www.w3.org/2000/svg"
 width="900.000000pt" height="900.000000pt" viewBox="0 0 900.000000 900.000000"
 preserveAspectRatio="xMidYMid meet">
   <rect width="100%" height="100%" fill="#006c3b" rx="0" ry="0" />

 <rect width="100%" height="100%" fill="#ffffff" rx="275" ry="275" />

<metadata>
Created by potrace 1.10, written by Peter Selinger 2001-2011
</metadata>

<g transform="translate(0.000000,900.000000) scale(0.100000,-0.100000)"
fill="#006c3b" stroke="none">
<path d="M1945 8990 c10 -16 -40 -30 -104 -30 -151 0 -442 -65 -609 -136 -18
-8 -38 -14 -44 -14 -37 0 -289 -143 -403 -229 -96 -73 -211 -181 -315 -298
-80 -88 -200 -271 -249 -378 -13 -27 -27 -58 -32 -67 -26 -52 -104 -292 -122
-378 -62 -289 -60 -193 -60 -2970 0 -2777 -2 -2681 60 -2970 18 -86 96 -326
122 -378 5 -9 19 -39 32 -67 174 -378 600 -773 980 -910 266 -95 491 -145 657
-145 39 0 74 -4 77 -10 4 -7 867 -10 2555 -10 1688 0 2551 3 2555 10 3 6 38
10 77 10 167 0 452 62 626 136 18 8 37 14 42 14 20 0 167 74 254 128 173 107
321 233 466 398 102 116 224 311 281 449 33 80 44 112 73 200 52 157 96 385
96 498 0 62 15 112 30 102 7 -4 10 844 10 2545 0 1701 -3 2549 -10 2545 -16
-10 -30 40 -30 104 0 62 -20 201 -46 321 -19 87 -97 327 -123 378 -5 9 -19 40
-32 67 -49 107 -169 290 -249 378 -44 50 -194 201 -225 227 -91 78 -267 195
-365 244 -31 15 -138 58 -250 100 -138 52 -410 106 -531 106 -64 0 -114 14
-104 30 4 7 -844 10 -2545 10 -1701 0 -2549 -3 -2545 -10z m2448 -2527 c97
-98 200 -220 218 -258 5 -11 21 -40 34 -64 33 -59 39 -101 26 -186 -14 -93
-32 -155 -54 -189 -17 -25 -22 -27 -65 -21 -26 4 -69 13 -96 21 -85 24 -183
18 -262 -15 -195 -82 -223 -93 -233 -86 -6 3 -11 12 -11 18 0 7 -6 24 -14 39
-8 15 -17 40 -21 57 -4 17 -11 33 -16 36 -5 4 -9 21 -9 39 0 18 -7 55 -15 82
-21 68 -19 99 9 158 76 158 334 466 391 466 13 0 55 -35 118 -97z m1129 -264
c9 -19 17 -46 18 -60 0 -15 6 -49 14 -75 45 -151 58 -328 31 -429 -16 -61 -46
-105 -124 -178 -56 -52 -51 -52 -146 0 -133 72 -315 158 -360 169 -17 4 -34
10 -40 14 -5 5 -39 18 -75 30 -36 12 -69 25 -73 30 -9 8 14 98 39 157 8 17 14
35 14 39 0 16 44 100 63 121 18 21 105 67 212 113 28 11 59 25 70 30 11 4 38
13 60 18 22 6 67 18 100 28 59 17 150 33 170 29 6 -1 18 -17 27 -36z m-2302
-88 c106 -14 354 -82 420 -116 44 -23 75 -61 117 -147 50 -100 86 -207 81
-239 -1 -13 -12 -28 -23 -34 -11 -6 -33 -19 -50 -30 -16 -10 -68 -43 -115 -74
-47 -30 -138 -94 -202 -143 l-118 -88 -32 17 c-84 45 -232 166 -258 211 -31
51 -44 145 -45 307 0 138 16 312 30 335 7 12 105 12 195 1z m1250 -386 c234
-44 260 -51 320 -82 14 -7 33 -13 42 -13 17 0 66 -19 121 -46 16 -8 34 -14 41
-14 10 0 161 -74 346 -170 59 -31 226 -141 281 -185 24 -19 63 -49 86 -67 23
-18 45 -44 48 -58 4 -14 11 -35 16 -48 5 -13 9 -36 9 -51 0 -16 7 -48 15 -71
8 -23 15 -57 15 -76 0 -54 86 -308 136 -404 34 -64 54 -85 97 -105 40 -19 64
-15 28 5 -33 17 -25 48 37 130 156 211 271 438 297 584 11 66 63 133 130 169
26 14 50 25 150 66 11 5 56 23 100 41 44 17 95 39 114 48 22 11 57 17 100 16
62 -1 73 -5 181 -66 215 -122 374 -228 456 -305 70 -66 84 -88 84 -135 -1 -63
-45 -210 -75 -251 -23 -31 -71 -42 -245 -57 -52 -4 -126 -12 -165 -18 -103
-16 -286 -40 -399 -51 -54 -5 -103 -14 -109 -20 -14 -14 -47 -111 -47 -141 -1
-14 -7 -36 -15 -50 -8 -14 -14 -35 -15 -48 0 -12 -4 -30 -9 -40 -5 -9 -19 -48
-31 -87 -26 -84 -51 -135 -66 -135 -6 0 -23 12 -38 27 -14 14 -29 23 -33 19
-4 -4 7 -18 25 -32 18 -14 32 -32 32 -40 0 -20 -53 -152 -91 -227 -16 -31 -29
-62 -29 -67 0 -12 -88 -158 -115 -189 -38 -45 -80 -81 -105 -89 -65 -23 -229
-72 -260 -78 -54 -10 -60 -19 -60 -95 0 -65 -14 -122 -46 -181 -22 -41 -17
-66 16 -83 17 -9 37 -30 44 -48 19 -42 40 -163 31 -176 -4 -8 -124 -11 -369
-11 -310 0 -365 2 -376 15 -10 12 -40 231 -52 380 -3 46 23 43 -223 24 -177
-14 -675 -15 -860 -2 l-130 10 -20 -26 c-11 -14 -41 -48 -67 -76 -26 -27 -48
-55 -48 -62 0 -6 14 -22 30 -35 31 -25 45 -66 57 -180 l5 -48 -475 0 c-267 0
-478 4 -481 9 -3 5 -8 71 -10 147 -3 77 -5 142 -6 147 0 4 -10 7 -22 7 -24 1
-58 21 -58 35 0 5 -11 23 -25 41 -26 34 -82 114 -180 259 -86 127 -109 159
-120 167 -12 9 -8 153 4 177 5 9 12 54 15 101 4 47 11 108 17 135 5 28 14 84
19 125 24 177 54 318 81 377 17 39 123 173 200 253 97 101 218 230 249 265 19
22 71 72 114 110 44 39 87 77 97 86 27 26 298 229 305 229 3 0 23 12 43 28 20
15 45 32 56 39 198 120 291 173 306 173 10 0 35 9 56 19 174 90 265 106 423
76z m-1657 -499 c18 -7 52 -33 76 -57 51 -51 131 -167 131 -189 0 -8 -29 -45
-63 -81 -34 -36 -105 -112 -157 -168 l-94 -103 -42 6 c-22 3 -54 12 -70 20
-16 8 -48 22 -72 32 -24 10 -54 30 -66 45 -64 76 -118 261 -120 408 l-1 75 45
12 c66 18 391 18 433 0z m-370 -810 c29 -14 63 -34 76 -44 23 -18 23 -19 8
-73 -22 -79 -47 -218 -47 -264 0 -69 -18 -114 -48 -122 -35 -10 -157 -10 -203
0 -66 14 -212 181 -272 311 l-18 40 28 22 c15 13 31 23 35 24 4 0 27 14 51 30
25 17 50 30 57 30 7 0 24 6 38 14 15 8 45 21 67 29 112 42 145 43 228 3z m14
-898 c13 -12 23 -25 23 -30 0 -5 18 -33 40 -63 22 -30 84 -119 137 -197 53
-79 108 -159 123 -178 58 -74 51 -89 -55 -110 -33 -6 -87 -18 -120 -25 -33 -8
-98 -21 -145 -30 -47 -9 -112 -23 -145 -30 -33 -8 -82 -17 -110 -20 -27 -4
-70 -10 -95 -15 -42 -8 -160 -25 -355 -50 -114 -14 -461 -34 -479 -27 -25 10
-19 34 10 41 14 4 43 18 65 31 21 14 45 25 52 25 7 0 18 5 23 10 11 11 22 17
174 97 139 74 138 73 230 134 47 31 101 65 120 75 60 33 143 89 192 130 26 21
81 66 124 99 42 33 95 81 117 108 22 26 43 47 45 47 3 0 16 -10 29 -22z m-799
-102 c129 -65 147 -71 306 -100 66 -11 121 -26 123 -32 2 -6 -31 -35 -74 -64
-63 -44 -86 -54 -118 -54 -54 1 -145 52 -218 123 -55 53 -117 134 -117 153 0
16 32 8 98 -26z m-209 -220 c25 -13 62 -31 81 -39 19 -9 51 -23 72 -31 20 -9
45 -16 55 -16 26 0 103 -38 103 -50 0 -6 -7 -10 -14 -10 -8 0 -34 -13 -58 -29
-52 -34 -83 -43 -112 -31 -49 18 -196 182 -196 218 0 18 17 15 69 -12z"/>
<path d="M7065 5159 c-22 -4 -57 -11 -77 -14 -38 -6 -60 -37 -41 -56 16 -16
191 -31 214 -19 31 17 24 57 -13 80 -18 11 -35 19 -38 19 -3 -1 -23 -5 -45
-10z"/>
<path d="M6128 4280 c12 -11 27 -20 33 -20 7 0 3 9 -9 20 -12 11 -27 20 -33
20 -7 0 -3 -9 9 -20z"/>
<path d="M6180 4240 c0 -6 4 -10 8 -10 10 0 49 -29 70 -52 20 -22 32 -23 32
-3 0 8 -7 15 -15 15 -8 0 -15 4 -15 9 0 5 -18 18 -40 30 -22 11 -40 16 -40 11z"/>
<path d="M6340 4124 c17 -15 33 -24 36 -21 9 9 -6 27 -22 27 -8 0 -14 5 -14
10 0 6 -7 10 -16 10 -10 0 -5 -9 16 -26z"/>
<path d="M6420 4061 c0 -11 31 -24 39 -16 3 3 -1 10 -9 15 -19 12 -30 12 -30
1z"/>
</g>
</svg>
